<svg xmlns="http://www.w3.org/2000/svg" version="1.1" xmlns:xlink="http://www.w3.org/1999/xlink" xmlns:svgjs="http://svgjs.dev/svgjs" width="2000" height="257" viewBox="0 0 2000 257"><g transform="matrix(1,0,0,1,-1.2121212121212466,0.8334485033350347)"><svg viewBox="0 0 396 51" data-background-color="#ffffff" preserveAspectRatio="xMidYMid meet" height="257" width="2000" xmlns="http://www.w3.org/2000/svg" xmlns:xlink="http://www.w3.org/1999/xlink"><g id="tight-bounds" transform="matrix(1,0,0,1,0.2400000000000091,-0.16539250455286947)"><svg viewBox="0 0 395.52 51.33078500910572" height="51.33078500910572" width="395.52"><g><svg viewBox="0 0 395.52 51.33078500910572" height="51.33078500910572" width="395.52"><g><svg viewBox="0 0 395.52 51.33078500910572" height="51.33078500910572" width="395.52"><g id="textblocktransform"><svg viewBox="0 0 395.52 51.33078500910572" height="51.33078500910572" width="395.52" id="textblock"><g><svg viewBox="0 0 395.52 51.33078500910572" height="51.33078500910572" width="395.52"><g transform="matrix(1,0,0,1,0,0)"><svg width="395.52" viewBox="0.7599999904632568 -32.279998779296875 254.69000244140625 33.05999755859375" height="51.33078500910572" data-palette-color="url(#1546d69d-9249-4e81-b92c-34eecfeff06e)"></svg></g></svg></g></svg></g></svg></g></svg></g><defs></defs><mask id="0e7d0642-f25f-44a9-a3d1-1278e4e4f8f4"><g id="SvgjsG1589"><svg viewBox="0 0 395.52 51.33078500910572" height="51.33078500910572" width="395.52"><g><svg viewBox="0 0 395.52 51.33078500910572" height="51.33078500910572" width="395.52"><g><svg viewBox="0 0 395.52 51.33078500910572" height="51.33078500910572" width="395.52"><g id="SvgjsG1588"><svg viewBox="0 0 395.52 51.33078500910572" height="51.33078500910572" width="395.52" id="SvgjsSvg1587"><g><svg viewBox="0 0 395.52 51.33078500910572" height="51.33078500910572" width="395.52"><g transform="matrix(1,0,0,1,0,0)"><svg width="395.52" viewBox="0.7599999904632568 -32.279998779296875 254.69000244140625 33.05999755859375" height="51.33078500910572" data-palette-color="url(#1546d69d-9249-4e81-b92c-34eecfeff06e)"><path d="M15.01-8.03L15.01-8.03 15.01-1.86Q13.89-0.88 12.02-0.22 10.16 0.44 7.48 0.44 4.81 0.44 2.88-0.76L2.88-0.76Q0.76-2.05 0.76-4.44L0.76-4.44 0.76-29.25Q0.76-31.49 11.77-31.49L11.77-31.49 26.1-31.49Q26.81-30.2 27.15-28.6 27.49-27 27.49-25.73L27.49-25.73Q27.49-20.14 22.58-20.14L22.58-20.14 14.14-20.14Q13.21-20.14 13.21-19.36L13.21-19.36 13.21-19.19Q13.21-19.04 13.26-18.99L13.26-18.99 24.05-18.99Q25.29-16.87 25.29-14.21L25.29-14.21Q25.29-10.89 23.8-9.03L23.8-9.03 11.84-9.03Q11.65-8.84 11.65-8.59L11.65-8.59Q11.65-8.2 12.24-8.13 12.84-8.06 13.6-8.06 14.36-8.06 15.01-8.03ZM42.94-27.08L42.94-27.08 42.94-1.86Q41.82-0.88 39.94-0.22 38.06 0.44 35.37 0.44 32.69 0.44 30.81-0.76L30.81-0.76Q28.68-2.05 28.68-4.42L28.68-4.42 28.68-29.64Q29.81-30.62 31.69-31.27 33.57-31.93 36.23-31.93 38.89-31.93 40.84-30.76L40.84-30.76Q42.94-29.42 42.94-27.08ZM58.39-20.85L58.39-17.36Q58.49-17.29 58.95-17.29 59.42-17.29 59.66-17.65 59.91-18.02 59.91-18.85L59.91-18.85 59.91-19.73Q59.91-20.61 59.7-20.98 59.49-21.36 59.02-21.36 58.54-21.36 58.37-21.26L58.37-21.26Q58.39-21.14 58.39-20.85L58.39-20.85ZM70.99-11.79L70.99-11.79 75.21-7.47Q74.78-3.66 72.81-1.61 70.84 0.44 67.38 0.44L67.38 0.44Q64.77 0.44 62.84-0.81L62.84-0.81Q60.37-2.37 59.15-5.79L59.15-5.79 58.27-8.18Q57.25-8.2 55.68-8.45L55.68-8.45Q55.49-8.25 55.49-7.91L55.49-7.91Q55.49-7.25 57.47-7.13L57.47-7.13 58.86-3.61 58.86-1.54Q56.05 0.44 51.66 0.44L51.66 0.44Q48.51 0.44 46.63-0.85 44.75-2.15 44.75-4.61L44.75-4.61 44.75-27.81Q44.75-28.88 46.72-29.9 48.7-30.91 51.9-31.53 55.1-32.15 58.3-32.15L58.3-32.15Q65.62-32.15 69.75-29.15L69.75-29.15Q74.09-26 74.09-20.29L74.09-20.29Q74.09-17.02 72.25-14.69 70.41-12.35 67.6-11.45L67.6-11.45Q67.6-10.67 68.54-10.67 69.48-10.67 70.99-11.79ZM87.1-31.49L87.1-31.49 101.19-31.49Q101.9-30.32 102.24-28.94 102.58-27.56 102.58-26.46L102.58-26.46Q102.58-24 101.62-22.75 100.65-21.51 98.92-21.51L98.92-21.51 89.08-21.51Q88.18-21.51 88.18-20.8L88.18-20.8 88.18-20.61Q88.18-20.46 88.22-20.41L88.22-20.41 99.89-20.41Q100.33-19.65 100.65-18.51L100.65-18.51Q100.94-17.26 100.94-16.28L100.94-16.28Q100.94-13.38 99.87-11.74L99.87-11.74 94.57-11.74Q90.86-11.74 89.54-11.46 88.22-11.18 87.91-10.99L87.91-10.99Q87.59-10.77 87.59-10.42 87.59-10.08 87.93-9.89L87.93-9.89Q89.2-10.3 90.59-10.47L90.59-10.47Q92.42-10.64 94.57-10.64L94.57-10.64 101.43-10.64Q102.92-8.54 102.92-5.59L102.92-5.59Q102.92-3.93 102.51-2.42 102.09-0.9 101.26 0.02L101.26 0.02 82.98 0.02Q79.95 0.02 78.12-1.44L78.12-1.44Q76.12-3 76.12-6.03L76.12-6.03 76.12-29.25Q76.12-30.42 78.8-30.96 81.49-31.49 87.1-31.49ZM118.59-9.72L118.59-9.72Q118.84-9.72 119.03-9.84L119.03-9.84 119.03-12.06Q120.69-13.18 123.68-13.89 126.67-14.6 129.51-14.6L129.51-14.6Q130.8-13.28 131.67-10.66 132.53-8.03 132.58-5.91L132.58-5.91Q132.09-4.93 130.93-3.81 129.78-2.69 128.14-1.73L128.14-1.73Q124.09 0.66 118.84 0.66L118.84 0.66Q111.32 0.66 107-3.71L107-3.71Q102.53-8.13 102.53-15.95 102.53-23.78 107.41-28.25L107.41-28.25Q109.56-30.25 112.42-31.26 115.27-32.28 118.42-32.28L118.42-32.28Q124.57-32.28 128.51-29.3 132.44-26.32 132.44-21.95L132.44-21.95Q132.44-18.65 130.41-17.08 128.38-15.5 124.92-15.5L124.92-15.5Q123.01-15.5 121.08-16.44 119.16-17.38 118.79-18.21L118.79-18.21Q118.79-20.21 118.86-21.36L118.86-21.36Q118.81-21.39 118.69-21.39L118.69-21.39 118.52-21.39Q118.15-21.39 117.95-21.18 117.74-20.97 117.58-20.31 117.42-19.65 117.42-16.72L117.42-16.72Q117.42-9.72 118.59-9.72ZM150.01-14.72L150.01-16.85Q150.01-19.29 149.79-20.2 149.57-21.12 148.99-21.12L148.99-21.12Q148.62-21.12 148.33-20.87L148.33-20.87Q148.38-20.43 148.47-19.7 148.57-18.97 148.57-16.58L148.57-16.58 148.57-14.99Q148.57-13.33 148.5-12.57 148.43-11.82 148.38-11.28L148.38-11.28Q148.35-10.99 148.33-10.69L148.33-10.69Q148.62-10.45 148.99-10.45L148.99-10.45Q149.57-10.45 149.79-11.36 150.01-12.28 150.01-14.72L150.01-14.72ZM149.04 0.78L149.04 0.78Q144.69 0.78 141.06-1.01 137.44-2.81 135.22-6.51 133-10.21 133-15.75L133-15.75Q133-23.78 137.83-28.3L137.83-28.3Q142.13-32.28 148.89-32.28L148.89-32.28Q156.24-32.28 160.52-27.72 164.81-23.17 164.81-15.75L164.81-15.75Q164.81-7.5 160.22-3.15L160.22-3.15Q156.04 0.78 149.04 0.78ZM180.89-14.72L180.89-16.85Q180.89-19.29 180.67-20.2 180.45-21.12 179.87-21.12L179.87-21.12Q179.5-21.12 179.21-20.87L179.21-20.87Q179.26-20.43 179.36-19.7 179.45-18.97 179.45-16.58L179.45-16.58 179.45-14.99Q179.45-13.33 179.38-12.57 179.31-11.82 179.26-11.28L179.26-11.28Q179.23-10.99 179.21-10.69L179.21-10.69Q179.5-10.45 179.87-10.45L179.87-10.45Q180.45-10.45 180.67-11.36 180.89-12.28 180.89-14.72L180.89-14.72ZM177.96 0.02L171.79 0.02Q169.08 0.02 167.6-1.42 166.12-2.86 166.12-5.76L166.12-5.76 166.12-27.73Q166.12-29.59 169.85-30.87 173.57-32.15 178.16-32.15L178.16-32.15Q186.24-32.15 190.78-28.25L190.78-28.25Q195.66-24.05 195.66-15.72L195.66-15.72Q195.66-8.23 190.94-4.1 186.22 0.02 177.96 0.02L177.96 0.02ZM207.97-31.49L207.97-31.49 222.05-31.49Q222.76-30.32 223.1-28.94 223.44-27.56 223.44-26.46L223.44-26.46Q223.44-24 222.48-22.75 221.52-21.51 219.78-21.51L219.78-21.51 209.94-21.51Q209.04-21.51 209.04-20.8L209.04-20.8 209.04-20.61Q209.04-20.46 209.09-20.41L209.09-20.41 220.76-20.41Q221.2-19.65 221.52-18.51L221.52-18.51Q221.81-17.26 221.81-16.28L221.81-16.28Q221.81-13.38 220.73-11.74L220.73-11.74 215.44-11.74Q211.73-11.74 210.41-11.46 209.09-11.18 208.77-10.99L208.77-10.99Q208.45-10.77 208.45-10.42 208.45-10.08 208.8-9.89L208.8-9.89Q210.07-10.3 211.46-10.47L211.46-10.47Q213.29-10.64 215.44-10.64L215.44-10.64 222.3-10.64Q223.79-8.54 223.79-5.59L223.79-5.59Q223.79-3.93 223.37-2.42 222.96-0.9 222.13 0.02L222.13 0.02 203.84 0.02Q200.81 0.02 198.98-1.44L198.98-1.44Q196.98-3 196.98-6.03L196.98-6.03 196.98-29.25Q196.98-30.42 199.67-30.96 202.35-31.49 207.97-31.49ZM238.63-20.85L238.63-17.36Q238.73-17.29 239.19-17.29 239.65-17.29 239.9-17.65 240.14-18.02 240.14-18.85L240.14-18.85 240.14-19.73Q240.14-20.61 239.93-20.98 239.73-21.36 239.25-21.36 238.77-21.36 238.6-21.26L238.6-21.26Q238.63-21.14 238.63-20.85L238.63-20.85ZM251.23-11.79L251.23-11.79 255.45-7.47Q255.01-3.66 253.04-1.61 251.08 0.44 247.61 0.44L247.61 0.44Q245 0.44 243.07-0.81L243.07-0.81Q240.61-2.37 239.38-5.79L239.38-5.79 238.51-8.18Q237.48-8.2 235.92-8.45L235.92-8.45Q235.72-8.25 235.72-7.91L235.72-7.91Q235.72-7.25 237.7-7.13L237.7-7.13 239.09-3.61 239.09-1.54Q236.28 0.44 231.89 0.44L231.89 0.44Q228.74 0.44 226.86-0.85 224.98-2.15 224.98-4.61L224.98-4.61 224.98-27.81Q224.98-28.88 226.96-29.9 228.94-30.91 232.13-31.53 235.33-32.15 238.53-32.15L238.53-32.15Q245.85-32.15 249.98-29.15L249.98-29.15Q254.33-26 254.33-20.29L254.33-20.29Q254.33-17.02 252.48-14.69 250.64-12.35 247.83-11.45L247.83-11.45Q247.83-10.67 248.77-10.67 249.71-10.67 251.23-11.79Z" opacity="1" transform="matrix(1,0,0,1,0,0)" fill="white" class="wordmark-text-0" id="SvgjsPath1586"></path></svg></g></svg></g></svg></g></svg></g></svg></g><defs><mask></mask></defs></svg></g></mask><linearGradient x1="0" x2="1" y1="0.5" y2="0.5" id="1546d69d-9249-4e81-b92c-34eecfeff06e"><stop stop-color="#ffa62e" offset="0"></stop><stop stop-color="#f71b3d" offset="1"></stop></linearGradient><rect width="395.5199890136719" height="51.33078384399414" fill="url(#1546d69d-9249-4e81-b92c-34eecfeff06e)" mask="url(#0e7d0642-f25f-44a9-a3d1-1278e4e4f8f4)" data-fill-palette-color="primary"></rect></svg><rect width="395.52" height="51.33078500910572" fill="none" stroke="none" visibility="hidden"></rect></g></svg></g></svg>